<?xml version="1.0" standalone="no"?>
<!DOCTYPE svg PUBLIC "-//W3C//DTD SVG 20010904//EN"
 "http://www.w3.org/TR/2001/REC-SVG-20010904/DTD/svg10.dtd">
<svg version="1.0" xmlns="http://www.w3.org/2000/svg"
 width="400.000000pt" height="400.000000pt" viewBox="0 0 400.000000 400.000000"
 preserveAspectRatio="xMidYMid meet">
<metadata>
Created by potrace 1.14, written by Peter Selinger 2001-2017
</metadata>
<g transform="translate(0.000000,400.000000) scale(0.100000,-0.100000)"
fill="#000000" stroke="none">
<path d="M0 2000 l0 -2000 2000 0 2000 0 0 2000 0 2000 -2000 0 -2000 0 0
-2000z m980 320 l0 -190 310 0 310 0 0 190 0 190 150 0 150 0 0 -515 0 -515
-150 0 -150 0 0 200 0 200 -310 0 -310 0 0 -200 0 -200 -150 0 -150 0 0 515 0
515 150 0 150 0 0 -190z m1933 162 c232 -64 369 -204 399 -409 32 -219 -61
-408 -249 -506 -142 -74 -181 -80 -595 -85 l-368 -4 0 517 0 517 368 -4 c336
-4 374 -7 445 -26z"/>
<path d="M2400 1995 l0 -275 174 0 c198 0 272 15 347 73 125 95 125 309 0 404
-75 58 -149 73 -347 73 l-174 0 0 -275z"/>
</g>
</svg>
